<?xml version="1.0" encoding="utf-8" standalone="no"?>
<!DOCTYPE svg PUBLIC "-//W3C//DTD SVG 1.1//EN"
  "http://www.w3.org/Graphics/SVG/1.1/DTD/svg11.dtd">
<svg xmlns:xlink="http://www.w3.org/1999/xlink" width="1584pt" height="288pt" viewBox="0 0 1584 288" xmlns="http://www.w3.org/2000/svg" version="1.1">
 <metadata>
  <rdf:RDF xmlns:dc="http://purl.org/dc/elements/1.1/" xmlns:cc="http://creativecommons.org/ns#" xmlns:rdf="http://www.w3.org/1999/02/22-rdf-syntax-ns#">
   <cc:Work>
    <dc:type rdf:resource="http://purl.org/dc/dcmitype/StillImage"/>
    <dc:date>2022-06-15T13:43:11.865962</dc:date>
    <dc:format>image/svg+xml</dc:format>
    <dc:creator>
     <cc:Agent>
      <dc:title>Matplotlib v3.5.1, https://matplotlib.org/</dc:title>
     </cc:Agent>
    </dc:creator>
   </cc:Work>
  </rdf:RDF>
 </metadata>
 <defs>
  <style type="text/css">*{stroke-linejoin: round; stroke-linecap: butt}</style>
 </defs>
 <g id="figure_1">
  <g id="patch_1">
   <path d="M 0 288 
L 1584 288 
L 1584 0 
L 0 0 
L 0 288 
z
" style="fill: none"/>
  </g>
  <g id="axes_1">
   <g id="patch_2">
    <path d="M 33.675 260.2 
L 778.6625 260.2 
L 778.6625 14.8 
L 33.675 14.8 
z
" style="fill: #ffffff"/>
   </g>
   <g id="QuadMesh_1">
    <path d="M 33.675 14.8 
L 90.981731 14.8 
L 90.981731 76.15 
L 33.675 76.15 
L 33.675 14.8 
" clip-path="url(#pa55f04f939)" style="fill: #1b1b1b"/>
    <path d="M 90.981731 14.8 
L 148.288462 14.8 
L 148.288462 76.15 
L 90.981731 76.15 
L 90.981731 14.8 
" clip-path="url(#pa55f04f939)"/>
    <path d="M 148.288462 14.8 
L 205.595192 14.8 
L 205.595192 76.15 
L 148.288462 76.15 
L 148.288462 14.8 
" clip-path="url(#pa55f04f939)"/>
    <path d="M 205.595192 14.8 
L 262.901923 14.8 
L 262.901923 76.15 
L 205.595192 76.15 
L 205.595192 14.8 
" clip-path="url(#pa55f04f939)" style="fill: #1b1b1b"/>
    <path d="M 262.901923 14.8 
L 320.208654 14.8 
L 320.208654 76.15 
L 262.901923 76.15 
L 262.901923 14.8 
" clip-path="url(#pa55f04f939)"/>
    <path d="M 320.208654 14.8 
L 377.515385 14.8 
L 377.515385 76.15 
L 320.208654 76.15 
L 320.208654 14.8 
" clip-path="url(#pa55f04f939)"/>
    <path d="M 377.515385 14.8 
L 434.822115 14.8 
L 434.822115 76.15 
L 377.515385 76.15 
L 377.515385 14.8 
" clip-path="url(#pa55f04f939)" style="fill: #898989"/>
    <path d="M 434.822115 14.8 
L 492.128846 14.8 
L 492.128846 76.15 
L 434.822115 76.15 
L 434.822115 14.8 
" clip-path="url(#pa55f04f939)" style="fill: #a4a4a4"/>
    <path d="M 492.128846 14.8 
L 549.435577 14.8 
L 549.435577 76.15 
L 492.128846 76.15 
L 492.128846 14.8 
" clip-path="url(#pa55f04f939)" style="fill: #a4a4a4"/>
    <path d="M 549.435577 14.8 
L 606.742308 14.8 
L 606.742308 76.15 
L 549.435577 76.15 
L 549.435577 14.8 
" clip-path="url(#pa55f04f939)" style="fill: #d4d4d4"/>
    <path d="M 606.742308 14.8 
L 664.049038 14.8 
L 664.049038 76.15 
L 606.742308 76.15 
L 606.742308 14.8 
" clip-path="url(#pa55f04f939)" style="fill: #a4a4a4"/>
    <path d="M 664.049038 14.8 
L 721.355769 14.8 
L 721.355769 76.15 
L 664.049038 76.15 
L 664.049038 14.8 
" clip-path="url(#pa55f04f939)" style="fill: #d4d4d4"/>
    <path d="M 721.355769 14.8 
L 778.6625 14.8 
L 778.6625 76.15 
L 721.355769 76.15 
L 721.355769 14.8 
" clip-path="url(#pa55f04f939)" style="fill: #ffffff"/>
    <path d="M 33.675 76.15 
L 90.981731 76.15 
L 90.981731 137.5 
L 33.675 137.5 
L 33.675 76.15 
" clip-path="url(#pa55f04f939)"/>
    <path d="M 90.981731 76.15 
L 148.288462 76.15 
L 148.288462 137.5 
L 90.981731 137.5 
L 90.981731 76.15 
" clip-path="url(#pa55f04f939)"/>
    <path d="M 148.288462 76.15 
L 205.595192 76.15 
L 205.595192 137.5 
L 148.288462 137.5 
L 148.288462 76.15 
" clip-path="url(#pa55f04f939)"/>
    <path d="M 205.595192 76.15 
L 262.901923 76.15 
L 262.901923 137.5 
L 205.595192 137.5 
L 205.595192 76.15 
" clip-path="url(#pa55f04f939)" style="fill: #1b1b1b"/>
    <path d="M 262.901923 76.15 
L 320.208654 76.15 
L 320.208654 137.5 
L 262.901923 137.5 
L 262.901923 76.15 
" clip-path="url(#pa55f04f939)" style="fill: #393939"/>
    <path d="M 320.208654 76.15 
L 377.515385 76.15 
L 377.515385 137.5 
L 320.208654 137.5 
L 320.208654 76.15 
" clip-path="url(#pa55f04f939)" style="fill: #393939"/>
    <path d="M 377.515385 76.15 
L 434.822115 76.15 
L 434.822115 137.5 
L 377.515385 137.5 
L 377.515385 76.15 
" clip-path="url(#pa55f04f939)" style="fill: #393939"/>
    <path d="M 434.822115 76.15 
L 492.128846 76.15 
L 492.128846 137.5 
L 434.822115 137.5 
L 434.822115 76.15 
" clip-path="url(#pa55f04f939)" style="fill: #707070"/>
    <path d="M 492.128846 76.15 
L 549.435577 76.15 
L 549.435577 137.5 
L 492.128846 137.5 
L 492.128846 76.15 
" clip-path="url(#pa55f04f939)" style="fill: #393939"/>
    <path d="M 549.435577 76.15 
L 606.742308 76.15 
L 606.742308 137.5 
L 549.435577 137.5 
L 549.435577 76.15 
" clip-path="url(#pa55f04f939)" style="fill: #707070"/>
    <path d="M 606.742308 76.15 
L 664.049038 76.15 
L 664.049038 137.5 
L 606.742308 137.5 
L 606.742308 76.15 
" clip-path="url(#pa55f04f939)" style="fill: #bfbfbf"/>
    <path d="M 664.049038 76.15 
L 721.355769 76.15 
L 721.355769 137.5 
L 664.049038 137.5 
L 664.049038 76.15 
" clip-path="url(#pa55f04f939)" style="fill: #d4d4d4"/>
    <path d="M 721.355769 76.15 
L 778.6625 76.15 
L 778.6625 137.5 
L 721.355769 137.5 
L 721.355769 76.15 
" clip-path="url(#pa55f04f939)" style="fill: #ffffff"/>
    <path d="M 33.675 137.5 
L 90.981731 137.5 
L 90.981731 198.85 
L 33.675 198.85 
L 33.675 137.5 
" clip-path="url(#pa55f04f939)"/>
    <path d="M 90.981731 137.5 
L 148.288462 137.5 
L 148.288462 198.85 
L 90.981731 198.85 
L 90.981731 137.5 
" clip-path="url(#pa55f04f939)"/>
    <path d="M 148.288462 137.5 
L 205.595192 137.5 
L 205.595192 198.85 
L 148.288462 198.85 
L 148.288462 137.5 
" clip-path="url(#pa55f04f939)"/>
    <path d="M 205.595192 137.5 
L 262.901923 137.5 
L 262.901923 198.85 
L 205.595192 198.85 
L 205.595192 137.5 
" clip-path="url(#pa55f04f939)" style="fill: #1b1b1b"/>
    <path d="M 262.901923 137.5 
L 320.208654 137.5 
L 320.208654 198.85 
L 262.901923 198.85 
L 262.901923 137.5 
" clip-path="url(#pa55f04f939)"/>
    <path d="M 320.208654 137.5 
L 377.515385 137.5 
L 377.515385 198.85 
L 320.208654 198.85 
L 320.208654 137.5 
" clip-path="url(#pa55f04f939)" style="fill: #393939"/>
    <path d="M 377.515385 137.5 
L 434.822115 137.5 
L 434.822115 198.85 
L 377.515385 198.85 
L 377.515385 137.5 
" clip-path="url(#pa55f04f939)"/>
    <path d="M 434.822115 137.5 
L 492.128846 137.5 
L 492.128846 198.85 
L 434.822115 198.85 
L 434.822115 137.5 
" clip-path="url(#pa55f04f939)" style="fill: #707070"/>
    <path d="M 492.128846 137.5 
L 549.435577 137.5 
L 549.435577 198.85 
L 492.128846 198.85 
L 492.128846 137.5 
" clip-path="url(#pa55f04f939)" style="fill: #393939"/>
    <path d="M 549.435577 137.5 
L 606.742308 137.5 
L 606.742308 198.85 
L 549.435577 198.85 
L 549.435577 137.5 
" clip-path="url(#pa55f04f939)" style="fill: #707070"/>
    <path d="M 606.742308 137.5 
L 664.049038 137.5 
L 664.049038 198.85 
L 606.742308 198.85 
L 606.742308 137.5 
" clip-path="url(#pa55f04f939)" style="fill: #bfbfbf"/>
    <path d="M 664.049038 137.5 
L 721.355769 137.5 
L 721.355769 198.85 
L 664.049038 198.85 
L 664.049038 137.5 
" clip-path="url(#pa55f04f939)" style="fill: #a4a4a4"/>
    <path d="M 721.355769 137.5 
L 778.6625 137.5 
L 778.6625 198.85 
L 721.355769 198.85 
L 721.355769 137.5 
" clip-path="url(#pa55f04f939)" style="fill: #d4d4d4"/>
    <path d="M 33.675 198.85 
L 90.981731 198.85 
L 90.981731 260.2 
L 33.675 260.2 
L 33.675 198.85 
" clip-path="url(#pa55f04f939)"/>
    <path d="M 90.981731 198.85 
L 148.288462 198.85 
L 148.288462 260.2 
L 90.981731 260.2 
L 90.981731 198.85 
" clip-path="url(#pa55f04f939)"/>
    <path d="M 148.288462 198.85 
L 205.595192 198.85 
L 205.595192 260.2 
L 148.288462 260.2 
L 148.288462 198.85 
" clip-path="url(#pa55f04f939)"/>
    <path d="M 205.595192 198.85 
L 262.901923 198.85 
L 262.901923 260.2 
L 205.595192 260.2 
L 205.595192 198.85 
" clip-path="url(#pa55f04f939)" style="fill: #1b1b1b"/>
    <path d="M 262.901923 198.85 
L 320.208654 198.85 
L 320.208654 260.2 
L 262.901923 260.2 
L 262.901923 198.85 
" clip-path="url(#pa55f04f939)" style="fill: #393939"/>
    <path d="M 320.208654 198.85 
L 377.515385 198.85 
L 377.515385 260.2 
L 320.208654 260.2 
L 320.208654 198.85 
" clip-path="url(#pa55f04f939)" style="fill: #393939"/>
    <path d="M 377.515385 198.85 
L 434.822115 198.85 
L 434.822115 260.2 
L 377.515385 260.2 
L 377.515385 198.85 
" clip-path="url(#pa55f04f939)" style="fill: #1b1b1b"/>
    <path d="M 434.822115 198.85 
L 492.128846 198.85 
L 492.128846 260.2 
L 434.822115 260.2 
L 434.822115 198.85 
" clip-path="url(#pa55f04f939)" style="fill: #393939"/>
    <path d="M 492.128846 198.85 
L 549.435577 198.85 
L 549.435577 260.2 
L 492.128846 260.2 
L 492.128846 198.85 
" clip-path="url(#pa55f04f939)" style="fill: #393939"/>
    <path d="M 549.435577 198.85 
L 606.742308 198.85 
L 606.742308 260.2 
L 549.435577 260.2 
L 549.435577 198.85 
" clip-path="url(#pa55f04f939)" style="fill: #a4a4a4"/>
    <path d="M 606.742308 198.85 
L 664.049038 198.85 
L 664.049038 260.2 
L 606.742308 260.2 
L 606.742308 198.85 
" clip-path="url(#pa55f04f939)" style="fill: #bfbfbf"/>
    <path d="M 664.049038 198.85 
L 721.355769 198.85 
L 721.355769 260.2 
L 664.049038 260.2 
L 664.049038 198.85 
" clip-path="url(#pa55f04f939)" style="fill: #a4a4a4"/>
    <path d="M 721.355769 198.85 
L 778.6625 198.85 
L 778.6625 260.2 
L 721.355769 260.2 
L 721.355769 198.85 
" clip-path="url(#pa55f04f939)" style="fill: #bfbfbf"/>
   </g>
   <g id="matplotlib.axis_1"/>
   <g id="matplotlib.axis_2"/>
  </g>
  <g id="axes_2">
   <g id="patch_3">
    <path d="M 820.275 260.2 
L 1565.2625 260.2 
L 1565.2625 14.8 
L 820.275 14.8 
z
" style="fill: #ffffff"/>
   </g>
   <g id="QuadMesh_2">
    <path d="M 820.275 14.8 
L 877.581731 14.8 
L 877.581731 76.15 
L 820.275 76.15 
L 820.275 14.8 
" clip-path="url(#p1f4f7d8185)" style="fill: #d1d1d1"/>
    <path d="M 877.581731 14.8 
L 934.888462 14.8 
L 934.888462 76.15 
L 877.581731 76.15 
L 877.581731 14.8 
" clip-path="url(#p1f4f7d8185)" style="fill: #959595"/>
    <path d="M 934.888462 14.8 
L 992.195192 14.8 
L 992.195192 76.15 
L 934.888462 76.15 
L 934.888462 14.8 
" clip-path="url(#p1f4f7d8185)" style="fill: #2b2b2b"/>
    <path d="M 992.195192 14.8 
L 1049.501923 14.8 
L 1049.501923 76.15 
L 992.195192 76.15 
L 992.195192 14.8 
" clip-path="url(#p1f4f7d8185)" style="fill: #2b2b2b"/>
    <path d="M 1049.501923 14.8 
L 1106.808654 14.8 
L 1106.808654 76.15 
L 1049.501923 76.15 
L 1049.501923 14.8 
" clip-path="url(#p1f4f7d8185)" style="fill: #2b2b2b"/>
    <path d="M 1106.808654 14.8 
L 1164.115385 14.8 
L 1164.115385 76.15 
L 1106.808654 76.15 
L 1106.808654 14.8 
" clip-path="url(#p1f4f7d8185)"/>
    <path d="M 1164.115385 14.8 
L 1221.422115 14.8 
L 1221.422115 76.15 
L 1164.115385 76.15 
L 1164.115385 14.8 
" clip-path="url(#p1f4f7d8185)"/>
    <path d="M 1221.422115 14.8 
L 1278.728846 14.8 
L 1278.728846 76.15 
L 1221.422115 76.15 
L 1221.422115 14.8 
" clip-path="url(#p1f4f7d8185)"/>
    <path d="M 1278.728846 14.8 
L 1336.035577 14.8 
L 1336.035577 76.15 
L 1278.728846 76.15 
L 1278.728846 14.8 
" clip-path="url(#p1f4f7d8185)"/>
    <path d="M 1336.035577 14.8 
L 1393.342308 14.8 
L 1393.342308 76.15 
L 1336.035577 76.15 
L 1336.035577 14.8 
" clip-path="url(#p1f4f7d8185)"/>
    <path d="M 1393.342308 14.8 
L 1450.649038 14.8 
L 1450.649038 76.15 
L 1393.342308 76.15 
L 1393.342308 14.8 
" clip-path="url(#p1f4f7d8185)"/>
    <path d="M 1450.649038 14.8 
L 1507.955769 14.8 
L 1507.955769 76.15 
L 1450.649038 76.15 
L 1450.649038 14.8 
" clip-path="url(#p1f4f7d8185)"/>
    <path d="M 1507.955769 14.8 
L 1565.2625 14.8 
L 1565.2625 76.15 
L 1507.955769 76.15 
L 1507.955769 14.8 
" clip-path="url(#p1f4f7d8185)" style="fill: #5c5c5c"/>
    <path d="M 820.275 76.15 
L 877.581731 76.15 
L 877.581731 137.5 
L 820.275 137.5 
L 820.275 76.15 
" clip-path="url(#p1f4f7d8185)" style="fill: #ffffff"/>
    <path d="M 877.581731 76.15 
L 934.888462 76.15 
L 934.888462 137.5 
L 877.581731 137.5 
L 877.581731 76.15 
" clip-path="url(#p1f4f7d8185)" style="fill: #959595"/>
    <path d="M 934.888462 76.15 
L 992.195192 76.15 
L 992.195192 137.5 
L 934.888462 137.5 
L 934.888462 76.15 
" clip-path="url(#p1f4f7d8185)" style="fill: #adadad"/>
    <path d="M 992.195192 76.15 
L 1049.501923 76.15 
L 1049.501923 137.5 
L 992.195192 137.5 
L 992.195192 76.15 
" clip-path="url(#p1f4f7d8185)" style="fill: #2b2b2b"/>
    <path d="M 1049.501923 76.15 
L 1106.808654 76.15 
L 1106.808654 137.5 
L 1049.501923 137.5 
L 1049.501923 76.15 
" clip-path="url(#p1f4f7d8185)" style="fill: #151515"/>
    <path d="M 1106.808654 76.15 
L 1164.115385 76.15 
L 1164.115385 137.5 
L 1106.808654 137.5 
L 1106.808654 76.15 
" clip-path="url(#p1f4f7d8185)"/>
    <path d="M 1164.115385 76.15 
L 1221.422115 76.15 
L 1221.422115 137.5 
L 1164.115385 137.5 
L 1164.115385 76.15 
" clip-path="url(#p1f4f7d8185)"/>
    <path d="M 1221.422115 76.15 
L 1278.728846 76.15 
L 1278.728846 137.5 
L 1221.422115 137.5 
L 1221.422115 76.15 
" clip-path="url(#p1f4f7d8185)"/>
    <path d="M 1278.728846 76.15 
L 1336.035577 76.15 
L 1336.035577 137.5 
L 1278.728846 137.5 
L 1278.728846 76.15 
" clip-path="url(#p1f4f7d8185)"/>
    <path d="M 1336.035577 76.15 
L 1393.342308 76.15 
L 1393.342308 137.5 
L 1336.035577 137.5 
L 1336.035577 76.15 
" clip-path="url(#p1f4f7d8185)"/>
    <path d="M 1393.342308 76.15 
L 1450.649038 76.15 
L 1450.649038 137.5 
L 1393.342308 137.5 
L 1393.342308 76.15 
" clip-path="url(#p1f4f7d8185)"/>
    <path d="M 1450.649038 76.15 
L 1507.955769 76.15 
L 1507.955769 137.5 
L 1450.649038 137.5 
L 1450.649038 76.15 
" clip-path="url(#p1f4f7d8185)"/>
    <path d="M 1507.955769 76.15 
L 1565.2625 76.15 
L 1565.2625 137.5 
L 1507.955769 137.5 
L 1507.955769 76.15 
" clip-path="url(#p1f4f7d8185)" style="fill: #444444"/>
    <path d="M 820.275 137.5 
L 877.581731 137.5 
L 877.581731 198.85 
L 820.275 198.85 
L 820.275 137.5 
" clip-path="url(#p1f4f7d8185)" style="fill: #ededed"/>
    <path d="M 877.581731 137.5 
L 934.888462 137.5 
L 934.888462 198.85 
L 877.581731 198.85 
L 877.581731 137.5 
" clip-path="url(#p1f4f7d8185)" style="fill: #c1c1c1"/>
    <path d="M 934.888462 137.5 
L 992.195192 137.5 
L 992.195192 198.85 
L 934.888462 198.85 
L 934.888462 137.5 
" clip-path="url(#p1f4f7d8185)" style="fill: #828282"/>
    <path d="M 992.195192 137.5 
L 1049.501923 137.5 
L 1049.501923 198.85 
L 992.195192 198.85 
L 992.195192 137.5 
" clip-path="url(#p1f4f7d8185)" style="fill: #828282"/>
    <path d="M 1049.501923 137.5 
L 1106.808654 137.5 
L 1106.808654 198.85 
L 1049.501923 198.85 
L 1049.501923 137.5 
" clip-path="url(#p1f4f7d8185)" style="fill: #6e6e6e"/>
    <path d="M 1106.808654 137.5 
L 1164.115385 137.5 
L 1164.115385 198.85 
L 1106.808654 198.85 
L 1106.808654 137.5 
" clip-path="url(#p1f4f7d8185)"/>
    <path d="M 1164.115385 137.5 
L 1221.422115 137.5 
L 1221.422115 198.85 
L 1164.115385 198.85 
L 1164.115385 137.5 
" clip-path="url(#p1f4f7d8185)"/>
    <path d="M 1221.422115 137.5 
L 1278.728846 137.5 
L 1278.728846 198.85 
L 1221.422115 198.85 
L 1221.422115 137.5 
" clip-path="url(#p1f4f7d8185)"/>
    <path d="M 1278.728846 137.5 
L 1336.035577 137.5 
L 1336.035577 198.85 
L 1278.728846 198.85 
L 1278.728846 137.5 
" clip-path="url(#p1f4f7d8185)"/>
    <path d="M 1336.035577 137.5 
L 1393.342308 137.5 
L 1393.342308 198.85 
L 1336.035577 198.85 
L 1336.035577 137.5 
" clip-path="url(#p1f4f7d8185)"/>
    <path d="M 1393.342308 137.5 
L 1450.649038 137.5 
L 1450.649038 198.85 
L 1393.342308 198.85 
L 1393.342308 137.5 
" clip-path="url(#p1f4f7d8185)"/>
    <path d="M 1450.649038 137.5 
L 1507.955769 137.5 
L 1507.955769 198.85 
L 1450.649038 198.85 
L 1450.649038 137.5 
" clip-path="url(#p1f4f7d8185)"/>
    <path d="M 1507.955769 137.5 
L 1565.2625 137.5 
L 1565.2625 198.85 
L 1507.955769 198.85 
L 1507.955769 137.5 
" clip-path="url(#p1f4f7d8185)" style="fill: #2b2b2b"/>
    <path d="M 820.275 198.85 
L 877.581731 198.85 
L 877.581731 260.2 
L 820.275 260.2 
L 820.275 198.85 
" clip-path="url(#p1f4f7d8185)" style="fill: #ededed"/>
    <path d="M 877.581731 198.85 
L 934.888462 198.85 
L 934.888462 260.2 
L 877.581731 260.2 
L 877.581731 198.85 
" clip-path="url(#p1f4f7d8185)" style="fill: #d1d1d1"/>
    <path d="M 934.888462 198.85 
L 992.195192 198.85 
L 992.195192 260.2 
L 934.888462 260.2 
L 934.888462 198.85 
" clip-path="url(#p1f4f7d8185)" style="fill: #6e6e6e"/>
    <path d="M 992.195192 198.85 
L 1049.501923 198.85 
L 1049.501923 260.2 
L 992.195192 260.2 
L 992.195192 198.85 
" clip-path="url(#p1f4f7d8185)" style="fill: #5c5c5c"/>
    <path d="M 1049.501923 198.85 
L 1106.808654 198.85 
L 1106.808654 260.2 
L 1049.501923 260.2 
L 1049.501923 198.85 
" clip-path="url(#p1f4f7d8185)" style="fill: #6e6e6e"/>
    <path d="M 1106.808654 198.85 
L 1164.115385 198.85 
L 1164.115385 260.2 
L 1106.808654 260.2 
L 1106.808654 198.85 
" clip-path="url(#p1f4f7d8185)" style="fill: #5c5c5c"/>
    <path d="M 1164.115385 198.85 
L 1221.422115 198.85 
L 1221.422115 260.2 
L 1164.115385 260.2 
L 1164.115385 198.85 
" clip-path="url(#p1f4f7d8185)" style="fill: #5c5c5c"/>
    <path d="M 1221.422115 198.85 
L 1278.728846 198.85 
L 1278.728846 260.2 
L 1221.422115 260.2 
L 1221.422115 198.85 
" clip-path="url(#p1f4f7d8185)"/>
    <path d="M 1278.728846 198.85 
L 1336.035577 198.85 
L 1336.035577 260.2 
L 1278.728846 260.2 
L 1278.728846 198.85 
" clip-path="url(#p1f4f7d8185)"/>
    <path d="M 1336.035577 198.85 
L 1393.342308 198.85 
L 1393.342308 260.2 
L 1336.035577 260.2 
L 1336.035577 198.85 
" clip-path="url(#p1f4f7d8185)"/>
    <path d="M 1393.342308 198.85 
L 1450.649038 198.85 
L 1450.649038 260.2 
L 1393.342308 260.2 
L 1393.342308 198.85 
" clip-path="url(#p1f4f7d8185)"/>
    <path d="M 1450.649038 198.85 
L 1507.955769 198.85 
L 1507.955769 260.2 
L 1450.649038 260.2 
L 1450.649038 198.85 
" clip-path="url(#p1f4f7d8185)"/>
    <path d="M 1507.955769 198.85 
L 1565.2625 198.85 
L 1565.2625 260.2 
L 1507.955769 260.2 
L 1507.955769 198.85 
" clip-path="url(#p1f4f7d8185)" style="fill: #151515"/>
   </g>
   <g id="matplotlib.axis_3"/>
   <g id="matplotlib.axis_4"/>
  </g>
 </g>
 <defs>
  <clipPath id="pa55f04f939">
   <rect x="33.675" y="14.8" width="744.9875" height="245.4"/>
  </clipPath>
  <clipPath id="p1f4f7d8185">
   <rect x="820.275" y="14.8" width="744.9875" height="245.4"/>
  </clipPath>
 </defs>
</svg>
